<svg width="19" height="21" viewBox="0 0 19 21" fill="none" xmlns="http://www.w3.org/2000/svg">
<path d="M16.3238 8.4512C16.3238 8.4512 15.7808 15.1741 15.4658 18.006C15.3158 19.3586 14.4788 20.1512 13.1078 20.1761C10.4988 20.223 7.88681 20.226 5.27881 20.1711C3.95981 20.1442 3.13681 19.3416 2.98981 18.013C2.67281 15.1561 2.13281 8.4512 2.13281 8.4512" stroke="#1E1E1E" stroke-width="1.5" stroke-linecap="round" stroke-linejoin="round"/>
<path d="M17.708 5.2285H0.75" stroke="#1E1E1E" stroke-width="1.5" stroke-linecap="round" stroke-linejoin="round"/>
<path d="M14.4406 5.2285C13.6556 5.2285 12.9796 4.67449 12.8256 3.90687L12.5826 2.69305C12.4326 2.13306 11.9246 1.74576 11.3456 1.74576H7.11258C6.53358 1.74576 6.02558 2.13306 5.87558 2.69305L5.63258 3.90687C5.47858 4.67449 4.80258 5.2285 4.01758 5.2285" stroke="#1E1E1E" stroke-width="1.5" stroke-linecap="round" stroke-linejoin="round"/>
</svg>
