<svg width="48" height="48" viewBox="0 0 48 48" fill="none" xmlns="http://www.w3.org/2000/svg">
<rect width="48" height="48" rx="24" fill="white"/>
<path fill-rule="evenodd" clip-rule="evenodd" d="M34.5 24.0632C34.5 18.2648 29.7984 13.5632 24 13.5632C18.2016 13.5632 13.5 18.2648 13.5 24.0632C13.5 29.3039 17.3391 33.6478 22.3594 34.4362V27.0993H19.6927V24.0632H22.3594V21.75C22.3594 19.1189 23.9273 17.6643 26.3255 17.6643C27.4744 17.6643 28.6763 17.8696 28.6763 17.8696V20.4539H27.3516C26.048 20.4539 25.6402 21.2629 25.6402 22.0945V24.0632H28.552L28.087 27.0993H25.6406V34.4371C30.6609 33.6492 34.5 29.3053 34.5 24.0632Z" fill="black"/>
</svg>
