<svg width="64" height="64" viewBox="0 0 64 64" fill="none" xmlns="http://www.w3.org/2000/svg">
<rect width="64" height="64" rx="32" fill="black"/>
<path d="M36.86 45.64C36.48 45.64 36.1 45.5 35.8 45.2C35.22 44.62 35.22 43.66 35.8 43.08L46.88 32L35.8 20.92C35.22 20.34 35.22 19.38 35.8 18.8C36.38 18.22 37.34 18.22 37.92 18.8L50.06 30.94C50.64 31.52 50.64 32.48 50.06 33.06L37.92 45.2C37.62 45.5 37.24 45.64 36.86 45.64Z" fill="white"/>
<path d="M48.66 33.5H15C14.18 33.5 13.5 32.82 13.5 32C13.5 31.18 14.18 30.5 15 30.5H48.66C49.48 30.5 50.16 31.18 50.16 32C50.16 32.82 49.48 33.5 48.66 33.5Z" fill="white"/>
</svg>
