<svg width="223" height="84" viewBox="0 0 223 84" fill="none" xmlns="http://www.w3.org/2000/svg">
<g clip-path="url(#clip0_90_4112)">
<path d="M9.90703 14.2062C1.3668 19.5799 -0.921173 29.6032 3.5415 36.6909C8.00417 43.7728 18.0395 46.0581 26.5855 40.6844C35.1313 35.3164 37.4136 25.2873 32.9567 18.2054C28.4939 11.1178 18.453 8.83819 9.90703 14.2062ZM22.4173 34.0662C10.8471 41.3349 6.66197 40.4808 4.06252 36.3629C1.46307 32.2392 2.51078 28.0987 14.0752 20.83C25.6453 13.5614 29.8305 14.4155 32.43 18.5391C35.0293 22.657 33.9873 26.7977 22.4173 34.0662Z" fill="white"/>
<path d="M71.1944 39.3246V8.21338H70.7593C69.7463 10.0168 64.6155 11.2489 61.2187 11.2489H59.7707V11.8263H59.9852C63.1673 11.8263 63.8169 13.2726 63.8169 16.2308V39.0389L57.9651 41.3483C56.1595 42.0685 54.1334 42.7887 52.7627 42.7887C51.1002 42.7887 50.23 41.8482 50.23 39.6103V8.21338H49.801C48.788 10.0168 43.6572 11.2489 40.2604 11.2489H38.8184V11.8263H39.0328C42.2151 11.8263 42.8646 13.2726 42.8646 16.2308V39.6162C42.8646 43.4434 44.6702 44.9552 47.632 44.9552C50.087 44.9552 52.6912 44.0921 56.2309 42.7173L63.8169 39.7591V44.3778C64.973 44.3778 65.837 44.235 67.5057 44.235C69.8893 44.235 71.3374 44.3778 73.4291 44.3778H75.2347V43.8005H75.0201C71.8438 43.8005 71.1944 42.3541 71.1944 39.3246Z" fill="white"/>
<path d="M136.823 52.5262V28.0454C136.787 24.4623 135.047 23.3909 132.27 23.0518C127.396 22.4565 124.428 24.5397 121.824 26.3372C120.114 27.5217 118.076 28.2002 116.699 28.1407C116.574 28.1348 116.478 28.0275 116.478 27.9026V7.35596H115.996C115.102 9.07609 110.204 10.2486 106.962 10.2486H105.585V10.8022H105.794C108.827 10.8022 109.447 12.1771 109.447 15.0044V27.9264C109.447 28.0395 109.357 28.1287 109.244 28.1228C108.773 28.099 107.629 28.0454 107.325 28.0454C102.242 28.0454 100.085 31.9024 98.5355 36.2414C97.1054 39.3423 96.3307 42.491 92.9877 42.9552C91.2655 42.9552 90.1093 41.9375 90.1093 38.7711V11.005H97.4688V10.2848H90.1093V0.814941H89.5254V1.02326C89.5254 4.27902 87.2848 6.51697 82.7318 6.51697V10.2848H77.75V11.005H82.7318V37.8247C82.7318 43.8838 86.1941 45.5563 89.6802 45.5563C93.6074 45.5563 96.2473 42.9731 97.4391 40.1161C97.4391 40.1161 98.613 37.7948 99.0779 36.5211C100.752 31.9738 102.665 29.3073 107.331 29.3073C107.683 29.3073 108.422 29.3371 109.238 29.3788C109.357 29.3847 109.453 29.4859 109.453 29.6049V52.5262C109.453 55.4188 108.833 56.7937 105.8 56.7937H105.591V57.3472H107.313C109.316 57.3472 110.692 57.139 112.969 57.139C115.245 57.139 116.622 57.3472 118.624 57.3472H120.346V56.7937H120.137C117.104 56.7937 116.485 55.4188 116.485 52.5262V29.5989C116.485 29.468 116.586 29.3609 116.717 29.3549C118.564 29.23 120.37 28.3966 122.175 27.3372C123.862 26.3194 126.335 25.0754 127.432 25.117C128.981 25.1766 129.791 26.0277 129.791 28.1466V52.5201C129.791 55.4128 129.172 56.7878 126.138 56.7878H125.93V57.3413H127.652C129.654 57.3413 131.031 57.133 133.307 57.133C135.584 57.133 136.96 57.3413 138.963 57.3413H140.685V56.7878H140.476C137.443 56.7937 136.823 55.4188 136.823 52.5262Z" fill="white"/>
<path d="M159.502 54.7106C153.019 54.7106 148.884 47.824 148.884 37.908C148.884 37.2354 148.884 36.4081 148.955 35.7891H169.841C170.049 27.8015 163.841 23.0518 156.88 23.0518C151.696 23.0518 146.279 26.0099 143.388 31.5571L143.079 32.1762C141.922 34.6047 141.238 37.5151 141.238 40.8721C141.238 51.4072 148.889 57.883 156.266 57.883C163.227 57.883 167.851 53.4785 169.985 46.3123L169.437 46.1753C167.434 52.4429 163.573 54.7106 159.502 54.7106ZM150.028 29.218C150.235 28.6645 150.439 28.1704 150.665 27.7003C152.024 24.9981 154.08 23.6708 156.541 23.6708C160.129 23.6708 163.018 26.492 163.09 35.0986H148.955C149.091 32.7834 149.473 30.8192 150.028 29.218Z" fill="white"/>
<path d="M187.081 27.3944C188.667 27.3944 190.186 28.567 191.973 28.567C194.114 28.567 195.281 27.4659 195.281 25.7458C195.281 24.1625 193.971 23.0614 191.837 23.0614C189.632 23.0614 187.976 24.0971 186.736 25.335C185.013 26.9183 183.565 28.9837 182.117 31.2573V22.8472H181.635C180.741 24.5673 175.843 25.7398 172.601 25.7398H171.225V26.2933H171.432C174.466 26.2933 175.086 27.6682 175.086 30.4955V52.5119C175.086 55.4046 174.466 56.7796 171.432 56.7796H171.225V57.3332H172.947C174.948 57.3332 176.325 57.1249 178.601 57.1249C181.152 57.1249 182.672 57.3332 184.877 57.3332H187.636V56.7796H186.462C183.429 56.7796 182.117 55.4046 182.117 52.5119V32.3466C183.775 29.5253 185.359 27.3944 187.081 27.3944Z" fill="white"/>
<path d="M222.169 46.1748C220.168 52.4422 216.312 54.716 212.242 54.716C205.764 54.716 201.623 47.8294 201.623 37.9133C201.623 37.2408 201.623 36.4135 201.694 35.7944H222.581C222.789 27.8069 216.586 23.0571 209.619 23.0571C202.033 23.0571 193.971 29.3901 193.971 40.8715C193.971 51.4066 201.623 57.8824 209 57.8824C215.96 57.8824 220.578 53.4779 222.718 46.3116L222.169 46.1748ZM209.279 23.6762C212.868 23.6762 215.757 26.4974 215.829 35.1041H201.694C202.176 27.3961 205.144 23.6762 209.279 23.6762Z" fill="white"/>
<path d="M10.9315 70.7036H14.0752V83.223H12.5101V70.7752L9.29464 83.223H6.06125L2.84579 70.7752V83.223H1.28516V70.7036H4.42886L7.68018 83.1514L10.9315 70.7036Z" fill="white"/>
<path d="M65.9246 70.7036H67.4897V78.2332C67.4897 81.7897 65.7631 83.4068 62.8571 83.4068C59.9511 83.4068 58.2246 81.7897 58.2246 78.2332V70.7036H59.7852V78.5064C59.7852 80.6833 60.6776 82.0988 62.8571 82.0988C65.0367 82.0988 65.9291 80.6833 65.9291 78.5064V70.7036H65.9246Z" fill="white"/>
<path d="M121.563 79.9774C121.563 81.8633 119.764 83.4086 116.782 83.4086C113.495 83.4086 111.804 81.1958 111.643 78.8174H113.262C113.369 80.6135 114.804 82.1006 116.715 82.1006C118.567 82.1006 119.858 81.2854 119.858 79.9595C119.858 78.7995 119.114 78.1276 117.499 77.7469L115.809 77.3482C113.19 76.73 111.957 75.6237 111.957 73.8813C111.957 71.8298 113.975 70.5264 116.334 70.5264C119.441 70.5264 121.002 72.2688 121.222 74.4278H119.607C119.464 72.9407 118.334 71.8298 116.41 71.8298C114.773 71.8298 113.647 72.5375 113.647 73.8096C113.647 74.7547 114.23 75.2787 116.298 75.7715L117.988 76.1702C120.311 76.7121 121.563 77.8006 121.563 79.9774Z" fill="white"/>
<path d="M165.648 83.223V70.7036H167.214V83.223H165.648Z" fill="white"/>
<path d="M217.144 70.521C220.014 70.521 222.086 72.3709 222.597 75.1659H220.978C220.561 73.0607 219.18 71.8244 217.216 71.8244C214.763 71.8244 213.126 73.9655 213.126 76.9621C213.126 80.0662 214.834 82.0952 217.359 82.0952C219.247 82.0952 220.664 80.8993 221.081 78.7942H222.7C222.189 81.5891 220.082 83.4032 217.212 83.4032C213.829 83.4032 211.436 80.7516 211.436 76.9621C211.444 73.3876 213.767 70.521 217.144 70.521Z" fill="white"/>
</g>
<defs>
<clipPath id="clip0_90_4112">
<rect width="223" height="83.9691" fill="white"/>
</clipPath>
</defs>
</svg>
