<svg width="162" height="61" viewBox="0 0 162 61" fill="none" xmlns="http://www.w3.org/2000/svg">
<g clip-path="url(#clip0_14_11)">
<path d="M7.19713 10.3201C0.993011 14.2239 -0.669101 21.5054 2.57284 26.6543C5.81478 31.799 13.105 33.4592 19.3133 29.5554C25.5215 25.6558 27.1795 18.3701 23.9417 13.2254C20.6997 8.07652 13.4054 6.4205 7.19713 10.3201ZM16.2853 24.7476C7.88008 30.028 4.83973 29.4075 2.95134 26.416C1.06295 23.4203 1.82407 20.4124 10.2251 15.132C18.6303 9.8517 21.6707 10.4722 23.5591 13.4678C25.4474 16.4593 24.6904 19.4673 16.2853 24.7476Z" fill="black"/>
<path d="M51.72 28.5678V5.9668H51.4039C50.668 7.27694 46.9407 8.17198 44.4731 8.17198H43.4212V8.5914H43.577C45.8887 8.5914 46.3606 9.6421 46.3606 11.7911V28.3602L42.1095 30.0379C40.7978 30.5611 39.3259 31.0843 38.3302 31.0843C37.1224 31.0843 36.4903 30.4011 36.4903 28.7753V5.9668H36.1786C35.4427 7.27694 31.7154 8.17198 29.2478 8.17198H28.2002V8.5914H28.356C30.6678 8.5914 31.1396 9.6421 31.1396 11.7911V28.7796C31.1396 31.5599 32.4513 32.6582 34.6029 32.6582C36.3864 32.6582 38.2782 32.0312 40.8497 31.0324L46.3606 28.8834V32.2387C47.2004 32.2387 47.8281 32.135 49.0403 32.135C50.7719 32.135 51.8239 32.2387 53.3434 32.2387H54.6551V31.8193H54.4992C52.1918 31.8193 51.72 30.7686 51.72 28.5678Z" fill="black"/>
<path d="M99.3955 38.1578V20.3736C99.3695 17.7706 98.1054 16.9923 96.0881 16.7459C92.5469 16.3135 90.391 17.8268 88.4992 19.1326C87.2568 19.9931 85.7762 20.486 84.7762 20.4428C84.6853 20.4385 84.616 20.3606 84.616 20.2698V5.34357H84.2654C83.616 6.59317 80.0575 7.44498 77.7025 7.44498H76.7025V7.8471H76.854C79.0575 7.8471 79.5077 8.84592 79.5077 10.8998V20.2871C79.5077 20.3693 79.4428 20.4341 79.3606 20.4298C79.0186 20.4125 78.1874 20.3736 77.9666 20.3736C74.2739 20.3736 72.7068 23.1755 71.5812 26.3276C70.5423 28.5803 69.9795 30.8677 67.5509 31.2049C66.2998 31.2049 65.4599 30.4656 65.4599 28.1653V7.99442H70.8063V7.47123H65.4599V0.591797H65.0357V0.743133C65.0357 3.1083 63.408 4.73408 60.1005 4.73408V7.47123H56.4814V7.99442H60.1005V27.4778C60.1005 31.8795 62.6157 33.0945 65.1482 33.0945C68.0011 33.0945 69.9189 31.2179 70.7847 29.1424C70.7847 29.1424 71.6375 27.4561 71.9752 26.5308C73.1916 23.2274 74.5813 21.2903 77.9709 21.2903C78.2263 21.2903 78.7632 21.3119 79.3562 21.3422C79.4428 21.3465 79.5121 21.42 79.5121 21.5065V38.1578C79.5121 40.2592 79.0619 41.258 76.8584 41.258H76.7068V41.6601H77.9579C79.4125 41.6601 80.4125 41.5088 82.0662 41.5088C83.7199 41.5088 84.7199 41.6601 86.1745 41.6601H87.4256V41.258H87.2741C85.0706 41.258 84.6204 40.2592 84.6204 38.1578V21.5021C84.6204 21.407 84.694 21.3292 84.7892 21.3249C86.1312 21.2341 87.4429 20.6287 88.7546 19.8591C89.9798 19.1197 91.7763 18.216 92.5729 18.2462C93.6984 18.2895 94.2872 18.9078 94.2872 20.4471V38.1534C94.2872 40.2548 93.837 41.2537 91.6335 41.2537H91.4819V41.6558H92.733C94.1876 41.6558 95.1876 41.5045 96.8413 41.5045C98.495 41.5045 99.495 41.6558 100.95 41.6558H102.201V41.2537H102.049C99.8457 41.258 99.3955 40.2592 99.3955 38.1578Z" fill="black"/>
<path d="M115.872 39.7449C111.162 39.7449 108.158 34.7421 108.158 27.5385C108.158 27.0499 108.158 26.4489 108.21 25.9992H123.383C123.534 20.1966 119.024 16.7461 113.967 16.7461C110.201 16.7461 106.266 18.8951 104.166 22.9249L103.941 23.3746C103.101 25.1388 102.604 27.2531 102.604 29.6918C102.604 37.3451 108.162 42.0495 113.521 42.0495C118.578 42.0495 121.937 38.8498 123.487 33.6439L123.089 33.5444C121.634 38.0975 118.829 39.7449 115.872 39.7449ZM108.989 21.2256C109.14 20.8235 109.288 20.4646 109.452 20.1231C110.439 18.16 111.933 17.1958 113.721 17.1958C116.327 17.1958 118.426 19.2453 118.478 25.4976H108.21C108.309 23.8157 108.586 22.3888 108.989 21.2256Z" fill="black"/>
<path d="M135.907 19.9011C137.059 19.9011 138.163 20.7529 139.461 20.7529C141.016 20.7529 141.864 19.953 141.864 18.7034C141.864 17.5532 140.912 16.7533 139.362 16.7533C137.76 16.7533 136.557 17.5057 135.656 18.405C134.405 19.5552 133.353 21.0556 132.301 22.7073V16.5977H131.951C131.301 17.8473 127.743 18.6991 125.388 18.6991H124.388V19.1012H124.539C126.743 19.1012 127.193 20.1 127.193 22.1539V38.1479C127.193 40.2493 126.743 41.2482 124.539 41.2482H124.388V41.6503H125.639C127.093 41.6503 128.093 41.499 129.747 41.499C131.6 41.499 132.704 41.6503 134.306 41.6503H136.31V41.2482H135.457C133.254 41.2482 132.301 40.2493 132.301 38.1479V23.4986C133.505 21.4491 134.656 19.9011 135.907 19.9011Z" fill="black"/>
<path d="M161.396 33.544C159.942 38.097 157.141 39.7488 154.184 39.7488C149.478 39.7488 146.47 34.746 146.47 27.5424C146.47 27.0538 146.47 26.4528 146.522 26.0031H161.695C161.846 20.2005 157.34 16.75 152.279 16.75C146.768 16.75 140.911 21.3506 140.911 29.6914C140.911 37.3447 146.47 42.0491 151.829 42.0491C156.885 42.0491 160.24 38.8494 161.795 33.6434L161.396 33.544ZM152.032 17.1997C154.639 17.1997 156.738 19.2492 156.79 25.5016H146.522C146.872 19.9021 149.028 17.1997 152.032 17.1997Z" fill="black"/>
<path d="M7.94126 51.3633H10.225V60.4581H9.08803V51.4153L6.75214 60.4581H4.40322L2.06733 51.4153V60.4581H0.933594V51.3633H3.21736L5.57931 60.4061L7.94126 51.3633Z" fill="black"/>
<path d="M47.8916 51.3633H49.0286V56.8332C49.0286 59.4169 47.7743 60.5916 45.6632 60.5916C43.5521 60.5916 42.2979 59.4169 42.2979 56.8332V51.3633H43.4316V57.0317C43.4316 58.6131 44.0799 59.6414 45.6632 59.6414C47.2466 59.6414 47.8949 58.6131 47.8949 57.0317V51.3633H47.8916Z" fill="black"/>
<path d="M88.31 58.1002C88.31 59.4702 87.0036 60.5928 84.8371 60.5928C82.449 60.5928 81.2208 58.9853 81.1035 57.2575H82.2796C82.3578 58.5623 83.4003 59.6426 84.7882 59.6426C86.1337 59.6426 87.072 59.0504 87.072 58.0872C87.072 57.2445 86.5312 56.7564 85.3583 56.4798L84.1301 56.1902C82.2275 55.7411 81.3316 54.9374 81.3316 53.6716C81.3316 52.1813 82.7976 51.2344 84.5113 51.2344C86.769 51.2344 87.9027 52.5002 88.0624 54.0686H86.8895C86.7853 52.9883 85.9643 52.1813 84.5667 52.1813C83.3775 52.1813 82.5598 52.6954 82.5598 53.6195C82.5598 54.3061 82.9833 54.6868 84.4852 55.0448L85.7134 55.3344C87.401 55.7281 88.31 56.5188 88.31 58.1002Z" fill="black"/>
<path d="M120.336 60.4581V51.3633H121.473V60.4581H120.336Z" fill="black"/>
<path d="M157.746 51.2305C159.831 51.2305 161.336 52.5744 161.707 54.6048H160.531C160.228 53.0755 159.225 52.1774 157.798 52.1774C156.016 52.1774 154.827 53.7328 154.827 55.9097C154.827 58.1647 156.068 59.6387 157.902 59.6387C159.274 59.6387 160.303 58.7699 160.606 57.2406H161.782C161.411 59.271 159.88 60.5889 157.795 60.5889C155.338 60.5889 153.599 58.6626 153.599 55.9097C153.605 53.313 155.293 51.2305 157.746 51.2305Z" fill="black"/>
</g>
<defs>
<clipPath id="clip0_14_11">
<rect width="162" height="61" fill="white"/>
</clipPath>
</defs>
</svg>
