<svg width="48" height="48" viewBox="0 0 48 48" fill="none" xmlns="http://www.w3.org/2000/svg">
<rect width="48" height="48" rx="24" fill="white"/>
<path d="M35.25 17.1328C34.406 17.4995 33.513 17.7412 32.5992 17.85C33.5595 17.2877 34.2817 16.3943 34.6303 15.3375C33.7224 15.8684 32.7307 16.2409 31.6978 16.4391C31.2629 15.9832 30.7397 15.6206 30.1603 15.3732C29.5808 15.1258 28.9571 14.9988 28.327 15C25.7761 15 23.7117 17.0344 23.7117 19.5422C23.7099 19.891 23.7499 20.2388 23.8308 20.5781C22.0016 20.4924 20.2104 20.0258 18.5719 19.2081C16.9333 18.3904 15.4835 17.2398 14.3152 15.8297C13.9053 16.5207 13.6885 17.3091 13.6875 18.1125C13.6875 19.6875 14.5092 21.0797 15.75 21.8953C15.0149 21.8779 14.2948 21.6833 13.6509 21.3281V21.3844C13.6509 23.5875 15.2447 25.4203 17.3541 25.8375C16.9574 25.9432 16.5486 25.9968 16.1381 25.9969C15.8468 25.9974 15.5562 25.9691 15.2705 25.9125C15.8569 27.7172 17.5636 29.0297 19.5853 29.0672C17.9425 30.3333 15.9256 31.0175 13.8516 31.0125C13.4834 31.012 13.1156 30.99 12.75 30.9469C14.8599 32.2942 17.3126 33.0068 19.8159 33C28.3172 33 32.9616 26.0766 32.9616 20.0719C32.9616 19.875 32.9564 19.6781 32.947 19.4859C33.8485 18.8447 34.6283 18.0479 35.25 17.1328Z" fill="black"/>
</svg>
