<svg width="48" height="48" viewBox="0 0 48 48" fill="none" xmlns="http://www.w3.org/2000/svg">
<rect width="48" height="48" rx="24" fill="white"/>
<g clip-path="url(#clip0_14_189)">
<path d="M35.8425 18.9745C35.8425 16.8652 34.2909 15.1683 32.3737 15.1683C29.7769 15.0469 27.1284 15 24.4219 15H23.5781C20.8781 15 18.225 15.0469 15.6281 15.1687C13.7156 15.1687 12.164 16.875 12.164 18.9844C12.0469 20.6527 11.9972 22.3214 12 23.9902C11.9953 25.6589 12.0484 27.3292 12.1594 29.0011C12.1594 31.1105 13.7109 32.8214 15.6234 32.8214C18.3515 32.948 21.15 33.0042 23.9953 32.9995C26.8453 33.0089 29.6359 32.9495 32.3672 32.8214C34.2844 32.8214 35.8359 31.1105 35.8359 29.0011C35.9484 27.3277 36 25.6589 35.9953 23.9855C36.0059 22.3167 35.955 20.6464 35.8425 18.9745ZM21.7031 28.5886V19.3777L28.5 23.9808L21.7031 28.5886Z" fill="black"/>
</g>
<defs>
<clipPath id="clip0_14_189">
<rect width="24" height="24" fill="white" transform="translate(12 12)"/>
</clipPath>
</defs>
</svg>
